<?xml version="1.0" encoding="UTF-8" standalone="no"?>
<!DOCTYPE svg PUBLIC "-//W3C//DTD SVG 1.1//EN"
 "http://www.w3.org/Graphics/SVG/1.1/DTD/svg11.dtd">
<!-- Generated by graphviz version 5.0.0 (20220707.1540)
 -->
<!-- Title: dependencies Pages: 1 -->
<svg width="4571pt" height="247pt"
 viewBox="0.00 0.00 4571.00 246.80" xmlns="http://www.w3.org/2000/svg" xmlns:xlink="http://www.w3.org/1999/xlink">
<g id="graph0" class="graph" transform="scale(1 1) rotate(0) translate(4 242.8)">
<title>dependencies</title>
<polygon fill="white" stroke="transparent" points="-4,4 -4,-242.8 4567,-242.8 4567,4 -4,4"/>
<text text-anchor="middle" x="2281.5" y="-8.2" font-family="sans-serif" font-size="14.00">dependencies</text>
<g id="clust1" class="cluster">
<title>cluster_AppModule</title>
<polygon fill="none" stroke="black" stroke-dasharray="1,5" points="8,-32.8 8,-230.8 4555,-230.8 4555,-32.8 8,-32.8"/>
</g>
<g id="clust2" class="cluster">
<title>cluster_AppModule_declarations</title>
<polygon fill="none" stroke="black" points="330,-40.8 330,-92.8 4547,-92.8 4547,-40.8 330,-40.8"/>
</g>
<g id="clust35" class="cluster">
<title>cluster_AppModule_providers</title>
<polygon fill="none" stroke="black" points="168,-40.8 168,-92.8 322,-92.8 322,-40.8 168,-40.8"/>
</g>
<g id="clust32" class="cluster">
<title>cluster_AppModule_imports</title>
<polygon fill="none" stroke="black" points="16,-40.8 16,-92.8 160,-92.8 160,-40.8 16,-40.8"/>
</g>
<g id="clust34" class="cluster">
<title>cluster_AppModule_bootstrap</title>
<polygon fill="none" stroke="black" points="2257,-170.8 2257,-222.8 2381,-222.8 2381,-170.8 2257,-170.8"/>
</g>
<!-- AnimationComponent -->
<g id="node1" class="node">
<title>AnimationComponent</title>
<polygon fill="#ffffb3" stroke="black" points="4538.71,-84.8 4397.29,-84.8 4397.29,-48.8 4538.71,-48.8 4538.71,-84.8"/>
<text text-anchor="middle" x="4468" y="-62.6" font-family="Times,serif" font-size="14.00">AnimationComponent</text>
</g>
<!-- AppModule -->
<g id="node30" class="node">
<title>AppModule</title>
<polygon fill="#8dd3c7" stroke="black" points="2360.66,-149.8 2357.66,-153.8 2336.66,-153.8 2333.66,-149.8 2277.34,-149.8 2277.34,-113.8 2360.66,-113.8 2360.66,-149.8"/>
<text text-anchor="middle" x="2319" y="-127.6" font-family="Times,serif" font-size="14.00">AppModule</text>
</g>
<!-- AnimationComponent&#45;&gt;AppModule -->
<g id="edge1" class="edge">
<title>AnimationComponent&#45;&gt;AppModule</title>
<path fill="none" stroke="black" d="M4468,-85.18C4468,-109.08 4468,-147.8 4468,-147.8 4468,-147.8 2370.96,-147.8 2370.96,-147.8"/>
<polygon fill="black" stroke="black" points="2370.96,-144.3 2360.96,-147.8 2370.96,-151.3 2370.96,-144.3"/>
</g>
<!-- AppComponent -->
<g id="node2" class="node">
<title>AppComponent</title>
<polygon fill="#ffffb3" stroke="black" points="4379.94,-84.8 4274.06,-84.8 4274.06,-48.8 4379.94,-48.8 4379.94,-84.8"/>
<text text-anchor="middle" x="4327" y="-62.6" font-family="Times,serif" font-size="14.00">AppComponent</text>
</g>
<!-- AppComponent&#45;&gt;AppModule -->
<g id="edge2" class="edge">
<title>AppComponent&#45;&gt;AppModule</title>
<path fill="none" stroke="black" d="M4327,-85.12C4327,-108.46 4327,-145.8 4327,-145.8 4327,-145.8 2370.94,-145.8 2370.94,-145.8"/>
<polygon fill="black" stroke="black" points="2370.94,-142.3 2360.94,-145.8 2370.94,-149.3 2370.94,-142.3"/>
</g>
<!-- BasicKnowledgeComponent -->
<g id="node3" class="node">
<title>BasicKnowledgeComponent</title>
<polygon fill="#ffffb3" stroke="black" points="4256.47,-84.8 4079.53,-84.8 4079.53,-48.8 4256.47,-48.8 4256.47,-84.8"/>
<text text-anchor="middle" x="4168" y="-62.6" font-family="Times,serif" font-size="14.00">BasicKnowledgeComponent</text>
</g>
<!-- BasicKnowledgeComponent&#45;&gt;AppModule -->
<g id="edge3" class="edge">
<title>BasicKnowledgeComponent&#45;&gt;AppModule</title>
<path fill="none" stroke="black" d="M4168,-85.05C4168,-107.82 4168,-143.8 4168,-143.8 4168,-143.8 2371.09,-143.8 2371.09,-143.8"/>
<polygon fill="black" stroke="black" points="2371.09,-140.3 2361.09,-143.8 2371.09,-147.3 2371.09,-140.3"/>
</g>
<!-- Child2Component -->
<g id="node4" class="node">
<title>Child2Component</title>
<polygon fill="#ffffb3" stroke="black" points="4061.95,-84.8 3942.05,-84.8 3942.05,-48.8 4061.95,-48.8 4061.95,-84.8"/>
<text text-anchor="middle" x="4002" y="-62.6" font-family="Times,serif" font-size="14.00">Child2Component</text>
</g>
<!-- Child2Component&#45;&gt;AppModule -->
<g id="edge4" class="edge">
<title>Child2Component&#45;&gt;AppModule</title>
<path fill="none" stroke="black" d="M4002,-85.09C4002,-107.01 4002,-140.8 4002,-140.8 4002,-140.8 2371.02,-140.8 2371.02,-140.8"/>
<polygon fill="black" stroke="black" points="2371.02,-137.3 2361.02,-140.8 2371.02,-144.3 2371.02,-137.3"/>
</g>
<!-- Child3Component -->
<g id="node5" class="node">
<title>Child3Component</title>
<polygon fill="#ffffb3" stroke="black" points="3924.95,-84.8 3805.05,-84.8 3805.05,-48.8 3924.95,-48.8 3924.95,-84.8"/>
<text text-anchor="middle" x="3865" y="-62.6" font-family="Times,serif" font-size="14.00">Child3Component</text>
</g>
<!-- Child3Component&#45;&gt;AppModule -->
<g id="edge5" class="edge">
<title>Child3Component&#45;&gt;AppModule</title>
<path fill="none" stroke="black" d="M3865,-84.97C3865,-106.3 3865,-138.8 3865,-138.8 3865,-138.8 2370.75,-138.8 2370.75,-138.8"/>
<polygon fill="black" stroke="black" points="2370.75,-135.3 2360.75,-138.8 2370.75,-142.3 2370.75,-135.3"/>
</g>
<!-- DatapatchComponent -->
<g id="node6" class="node">
<title>DatapatchComponent</title>
<polygon fill="#ffffb3" stroke="black" points="3787.08,-84.8 3648.92,-84.8 3648.92,-48.8 3787.08,-48.8 3787.08,-84.8"/>
<text text-anchor="middle" x="3718" y="-62.6" font-family="Times,serif" font-size="14.00">DatapatchComponent</text>
</g>
<!-- DatapatchComponent&#45;&gt;AppModule -->
<g id="edge6" class="edge">
<title>DatapatchComponent&#45;&gt;AppModule</title>
<path fill="none" stroke="black" d="M3718,-84.83C3718,-105.57 3718,-136.8 3718,-136.8 3718,-136.8 2370.87,-136.8 2370.87,-136.8"/>
<polygon fill="black" stroke="black" points="2370.87,-133.3 2360.87,-136.8 2370.87,-140.3 2370.87,-133.3"/>
</g>
<!-- Demo1Component -->
<g id="node7" class="node">
<title>Demo1Component</title>
<polygon fill="#ffffb3" stroke="black" points="3631.05,-84.8 3508.95,-84.8 3508.95,-48.8 3631.05,-48.8 3631.05,-84.8"/>
<text text-anchor="middle" x="3570" y="-62.6" font-family="Times,serif" font-size="14.00">Demo1Component</text>
</g>
<!-- Demo1Component&#45;&gt;AppModule -->
<g id="edge7" class="edge">
<title>Demo1Component&#45;&gt;AppModule</title>
<path fill="none" stroke="black" d="M3570,-85.02C3570,-105.17 3570,-134.8 3570,-134.8 3570,-134.8 2370.98,-134.8 2370.98,-134.8"/>
<polygon fill="black" stroke="black" points="2370.98,-131.3 2360.98,-134.8 2370.98,-138.3 2370.98,-131.3"/>
</g>
<!-- DetailComponent -->
<g id="node8" class="node">
<title>DetailComponent</title>
<polygon fill="#ffffb3" stroke="black" points="3490.54,-84.8 3375.46,-84.8 3375.46,-48.8 3490.54,-48.8 3490.54,-84.8"/>
<text text-anchor="middle" x="3433" y="-62.6" font-family="Times,serif" font-size="14.00">DetailComponent</text>
</g>
<!-- DetailComponent&#45;&gt;AppModule -->
<g id="edge8" class="edge">
<title>DetailComponent&#45;&gt;AppModule</title>
<path fill="none" stroke="black" d="M3433,-84.91C3433,-104.14 3433,-131.8 3433,-131.8 3433,-131.8 2370.97,-131.8 2370.97,-131.8"/>
<polygon fill="black" stroke="black" points="2370.97,-128.3 2360.97,-131.8 2370.97,-135.3 2370.97,-128.3"/>
</g>
<!-- FooterComponent -->
<g id="node9" class="node">
<title>FooterComponent</title>
<polygon fill="#ffffb3" stroke="black" points="3356.88,-84.8 3239.12,-84.8 3239.12,-48.8 3356.88,-48.8 3356.88,-84.8"/>
<text text-anchor="middle" x="3298" y="-62.6" font-family="Times,serif" font-size="14.00">FooterComponent</text>
</g>
<!-- FooterComponent&#45;&gt;AppModule -->
<g id="edge9" class="edge">
<title>FooterComponent&#45;&gt;AppModule</title>
<path fill="none" stroke="black" d="M3298,-85.02C3298,-103.63 3298,-129.8 3298,-129.8 3298,-129.8 2370.75,-129.8 2370.75,-129.8"/>
<polygon fill="black" stroke="black" points="2370.75,-126.3 2360.75,-129.8 2370.75,-133.3 2370.75,-126.3"/>
</g>
<!-- FormComponent -->
<g id="node10" class="node">
<title>FormComponent</title>
<polygon fill="#ffffb3" stroke="black" points="3220.67,-84.8 3109.33,-84.8 3109.33,-48.8 3220.67,-48.8 3220.67,-84.8"/>
<text text-anchor="middle" x="3165" y="-62.6" font-family="Times,serif" font-size="14.00">FormComponent</text>
</g>
<!-- FormComponent&#45;&gt;AppModule -->
<g id="edge10" class="edge">
<title>FormComponent&#45;&gt;AppModule</title>
<path fill="none" stroke="black" d="M3165,-85.1C3165,-103.07 3165,-127.8 3165,-127.8 3165,-127.8 2370.66,-127.8 2370.66,-127.8"/>
<polygon fill="black" stroke="black" points="2370.66,-124.3 2360.66,-127.8 2370.66,-131.3 2370.66,-124.3"/>
</g>
<!-- FormatterDatePipe -->
<g id="node11" class="node">
<title>FormatterDatePipe</title>
<polygon fill="#ffffb3" stroke="black" points="3091.03,-84.8 2968.97,-84.8 2968.97,-48.8 3091.03,-48.8 3091.03,-84.8"/>
<text text-anchor="middle" x="3030" y="-62.6" font-family="Times,serif" font-size="14.00">FormatterDatePipe</text>
</g>
<!-- FormatterDatePipe&#45;&gt;AppModule -->
<g id="edge11" class="edge">
<title>FormatterDatePipe&#45;&gt;AppModule</title>
<path fill="none" stroke="black" d="M3030,-84.82C3030,-102.17 3030,-125.8 3030,-125.8 3030,-125.8 2370.82,-125.8 2370.82,-125.8"/>
<polygon fill="black" stroke="black" points="2370.82,-122.3 2360.82,-125.8 2370.82,-129.3 2370.82,-122.3"/>
</g>
<!-- FormatterSexPipe -->
<g id="node12" class="node">
<title>FormatterSexPipe</title>
<polygon fill="#ffffb3" stroke="black" points="2950.6,-84.8 2833.4,-84.8 2833.4,-48.8 2950.6,-48.8 2950.6,-84.8"/>
<text text-anchor="middle" x="2892" y="-62.6" font-family="Times,serif" font-size="14.00">FormatterSexPipe</text>
</g>
<!-- FormatterSexPipe&#45;&gt;AppModule -->
<g id="edge12" class="edge">
<title>FormatterSexPipe&#45;&gt;AppModule</title>
<path fill="none" stroke="black" d="M2892,-84.83C2892,-101.2 2892,-122.8 2892,-122.8 2892,-122.8 2370.67,-122.8 2370.67,-122.8"/>
<polygon fill="black" stroke="black" points="2370.67,-119.3 2360.67,-122.8 2370.67,-126.3 2370.67,-119.3"/>
</g>
<!-- HeaerComponent -->
<g id="node13" class="node">
<title>HeaerComponent</title>
<polygon fill="#ffffb3" stroke="black" points="2815.25,-84.8 2700.75,-84.8 2700.75,-48.8 2815.25,-48.8 2815.25,-84.8"/>
<text text-anchor="middle" x="2758" y="-62.6" font-family="Times,serif" font-size="14.00">HeaerComponent</text>
</g>
<!-- HeaerComponent&#45;&gt;AppModule -->
<g id="edge13" class="edge">
<title>HeaerComponent&#45;&gt;AppModule</title>
<path fill="none" stroke="black" d="M2758,-85.08C2758,-100.75 2758,-120.8 2758,-120.8 2758,-120.8 2370.7,-120.8 2370.7,-120.8"/>
<polygon fill="black" stroke="black" points="2370.7,-117.3 2360.7,-120.8 2370.7,-124.3 2370.7,-117.3"/>
</g>
<!-- HomeComponent -->
<g id="node14" class="node">
<title>HomeComponent</title>
<polygon fill="#ffffb3" stroke="black" points="2682.55,-84.8 2567.45,-84.8 2567.45,-48.8 2682.55,-48.8 2682.55,-84.8"/>
<text text-anchor="middle" x="2625" y="-62.6" font-family="Times,serif" font-size="14.00">HomeComponent</text>
</g>
<!-- HomeComponent&#45;&gt;AppModule -->
<g id="edge14" class="edge">
<title>HomeComponent&#45;&gt;AppModule</title>
<path fill="none" stroke="black" d="M2625,-84.99C2625,-99.98 2625,-118.8 2625,-118.8 2625,-118.8 2370.91,-118.8 2370.91,-118.8"/>
<polygon fill="black" stroke="black" points="2370.91,-115.3 2360.91,-118.8 2370.91,-122.3 2370.91,-115.3"/>
</g>
<!-- HttprequestComponent -->
<g id="node15" class="node">
<title>HttprequestComponent</title>
<polygon fill="#ffffb3" stroke="black" points="2549.15,-84.8 2402.85,-84.8 2402.85,-48.8 2549.15,-48.8 2549.15,-84.8"/>
<text text-anchor="middle" x="2476" y="-62.6" font-family="Times,serif" font-size="14.00">HttprequestComponent</text>
</g>
<!-- HttprequestComponent&#45;&gt;AppModule -->
<g id="edge15" class="edge">
<title>HttprequestComponent&#45;&gt;AppModule</title>
<path fill="none" stroke="black" d="M2476,-84.85C2476,-99.17 2476,-116.8 2476,-116.8 2476,-116.8 2371.07,-116.8 2371.07,-116.8"/>
<polygon fill="black" stroke="black" points="2371.07,-113.3 2361.07,-116.8 2371.07,-120.3 2371.07,-113.3"/>
</g>
<!-- LearningComponent -->
<g id="node16" class="node">
<title>LearningComponent</title>
<polygon fill="#ffffb3" stroke="black" points="2384.86,-84.8 2253.14,-84.8 2253.14,-48.8 2384.86,-48.8 2384.86,-84.8"/>
<text text-anchor="middle" x="2319" y="-62.6" font-family="Times,serif" font-size="14.00">LearningComponent</text>
</g>
<!-- LearningComponent&#45;&gt;AppModule -->
<g id="edge16" class="edge">
<title>LearningComponent&#45;&gt;AppModule</title>
<path fill="none" stroke="black" d="M2319,-84.91C2319,-84.91 2319,-103.79 2319,-103.79"/>
<polygon fill="black" stroke="black" points="2315.5,-103.79 2319,-113.79 2322.5,-103.79 2315.5,-103.79"/>
</g>
<!-- LifecycleComponent -->
<g id="node17" class="node">
<title>LifecycleComponent</title>
<polygon fill="#ffffb3" stroke="black" points="2235.18,-84.8 2100.82,-84.8 2100.82,-48.8 2235.18,-48.8 2235.18,-84.8"/>
<text text-anchor="middle" x="2168" y="-62.6" font-family="Times,serif" font-size="14.00">LifecycleComponent</text>
</g>
<!-- LifecycleComponent&#45;&gt;AppModule -->
<g id="edge17" class="edge">
<title>LifecycleComponent&#45;&gt;AppModule</title>
<path fill="none" stroke="black" d="M2168,-84.85C2168,-99.17 2168,-116.8 2168,-116.8 2168,-116.8 2266.94,-116.8 2266.94,-116.8"/>
<polygon fill="black" stroke="black" points="2266.94,-120.3 2276.94,-116.8 2266.94,-113.3 2266.94,-120.3"/>
</g>
<!-- LifedemoComponent -->
<g id="node18" class="node">
<title>LifedemoComponent</title>
<polygon fill="#ffffb3" stroke="black" points="2082.75,-84.8 1947.25,-84.8 1947.25,-48.8 2082.75,-48.8 2082.75,-84.8"/>
<text text-anchor="middle" x="2015" y="-62.6" font-family="Times,serif" font-size="14.00">LifedemoComponent</text>
</g>
<!-- LifedemoComponent&#45;&gt;AppModule -->
<g id="edge18" class="edge">
<title>LifedemoComponent&#45;&gt;AppModule</title>
<path fill="none" stroke="black" d="M2015,-84.99C2015,-99.98 2015,-118.8 2015,-118.8 2015,-118.8 2267.05,-118.8 2267.05,-118.8"/>
<polygon fill="black" stroke="black" points="2267.05,-122.3 2277.05,-118.8 2267.05,-115.3 2267.05,-122.3"/>
</g>
<!-- NavigationComponent -->
<g id="node19" class="node">
<title>NavigationComponent</title>
<polygon fill="#ffffb3" stroke="black" points="1928.54,-84.8 1785.46,-84.8 1785.46,-48.8 1928.54,-48.8 1928.54,-84.8"/>
<text text-anchor="middle" x="1857" y="-62.6" font-family="Times,serif" font-size="14.00">NavigationComponent</text>
</g>
<!-- NavigationComponent&#45;&gt;AppModule -->
<g id="edge19" class="edge">
<title>NavigationComponent&#45;&gt;AppModule</title>
<path fill="none" stroke="black" d="M1857,-85.08C1857,-100.75 1857,-120.8 1857,-120.8 1857,-120.8 2267.19,-120.8 2267.19,-120.8"/>
<polygon fill="black" stroke="black" points="2267.19,-124.3 2277.19,-120.8 2267.19,-117.3 2267.19,-124.3"/>
</g>
<!-- NewsComponent -->
<g id="node20" class="node">
<title>NewsComponent</title>
<polygon fill="#ffffb3" stroke="black" points="1767.71,-84.8 1654.29,-84.8 1654.29,-48.8 1767.71,-48.8 1767.71,-84.8"/>
<text text-anchor="middle" x="1711" y="-62.6" font-family="Times,serif" font-size="14.00">NewsComponent</text>
</g>
<!-- NewsComponent&#45;&gt;AppModule -->
<g id="edge20" class="edge">
<title>NewsComponent&#45;&gt;AppModule</title>
<path fill="none" stroke="black" d="M1711,-84.83C1711,-101.2 1711,-122.8 1711,-122.8 1711,-122.8 2267.21,-122.8 2267.21,-122.8"/>
<polygon fill="black" stroke="black" points="2267.21,-126.3 2277.21,-122.8 2267.21,-119.3 2267.21,-126.3"/>
</g>
<!-- NewsdetailComponent -->
<g id="node21" class="node">
<title>NewsdetailComponent</title>
<polygon fill="#ffffb3" stroke="black" points="1636.31,-84.8 1491.69,-84.8 1491.69,-48.8 1636.31,-48.8 1636.31,-84.8"/>
<text text-anchor="middle" x="1564" y="-62.6" font-family="Times,serif" font-size="14.00">NewsdetailComponent</text>
</g>
<!-- NewsdetailComponent&#45;&gt;AppModule -->
<g id="edge21" class="edge">
<title>NewsdetailComponent&#45;&gt;AppModule</title>
<path fill="none" stroke="black" d="M1564,-84.82C1564,-102.17 1564,-125.8 1564,-125.8 1564,-125.8 2267.33,-125.8 2267.33,-125.8"/>
<polygon fill="black" stroke="black" points="2267.33,-129.3 2277.33,-125.8 2267.33,-122.3 2267.33,-129.3"/>
</g>
<!-- ProductComponent -->
<g id="node22" class="node">
<title>ProductComponent</title>
<polygon fill="#ffffb3" stroke="black" points="1473.38,-84.8 1348.62,-84.8 1348.62,-48.8 1473.38,-48.8 1473.38,-84.8"/>
<text text-anchor="middle" x="1411" y="-62.6" font-family="Times,serif" font-size="14.00">ProductComponent</text>
</g>
<!-- ProductComponent&#45;&gt;AppModule -->
<g id="edge22" class="edge">
<title>ProductComponent&#45;&gt;AppModule</title>
<path fill="none" stroke="black" d="M1411,-85.1C1411,-103.07 1411,-127.8 1411,-127.8 1411,-127.8 2267.33,-127.8 2267.33,-127.8"/>
<polygon fill="black" stroke="black" points="2267.33,-131.3 2277.33,-127.8 2267.33,-124.3 2267.33,-131.3"/>
</g>
<!-- RegisterComponent -->
<g id="node23" class="node">
<title>RegisterComponent</title>
<polygon fill="#ffffb3" stroke="black" points="1330.99,-84.8 1203.01,-84.8 1203.01,-48.8 1330.99,-48.8 1330.99,-84.8"/>
<text text-anchor="middle" x="1267" y="-62.6" font-family="Times,serif" font-size="14.00">RegisterComponent</text>
</g>
<!-- RegisterComponent&#45;&gt;AppModule -->
<g id="edge23" class="edge">
<title>RegisterComponent&#45;&gt;AppModule</title>
<path fill="none" stroke="black" d="M1267,-85.02C1267,-103.63 1267,-129.8 1267,-129.8 1267,-129.8 2267.11,-129.8 2267.11,-129.8"/>
<polygon fill="black" stroke="black" points="2267.11,-133.3 2277.11,-129.8 2267.11,-126.3 2267.11,-133.3"/>
</g>
<!-- RxjslearnComponent -->
<g id="node24" class="node">
<title>RxjslearnComponent</title>
<polygon fill="#ffffb3" stroke="black" points="1185.49,-84.8 1050.51,-84.8 1050.51,-48.8 1185.49,-48.8 1185.49,-84.8"/>
<text text-anchor="middle" x="1118" y="-62.6" font-family="Times,serif" font-size="14.00">RxjslearnComponent</text>
</g>
<!-- RxjslearnComponent&#45;&gt;AppModule -->
<g id="edge24" class="edge">
<title>RxjslearnComponent&#45;&gt;AppModule</title>
<path fill="none" stroke="black" d="M1118,-84.91C1118,-104.14 1118,-131.8 1118,-131.8 1118,-131.8 2267.31,-131.8 2267.31,-131.8"/>
<polygon fill="black" stroke="black" points="2267.31,-135.3 2277.31,-131.8 2267.31,-128.3 2267.31,-135.3"/>
</g>
<!-- ServiceComponent -->
<g id="node25" class="node">
<title>ServiceComponent</title>
<polygon fill="#ffffb3" stroke="black" points="1032.81,-84.8 909.19,-84.8 909.19,-48.8 1032.81,-48.8 1032.81,-84.8"/>
<text text-anchor="middle" x="971" y="-62.6" font-family="Times,serif" font-size="14.00">ServiceComponent</text>
</g>
<!-- ServiceComponent&#45;&gt;AppModule -->
<g id="edge25" class="edge">
<title>ServiceComponent&#45;&gt;AppModule</title>
<path fill="none" stroke="black" d="M971,-85.02C971,-105.17 971,-134.8 971,-134.8 971,-134.8 2267.18,-134.8 2267.18,-134.8"/>
<polygon fill="black" stroke="black" points="2267.18,-138.3 2277.18,-134.8 2267.18,-131.3 2267.18,-138.3"/>
</g>
<!-- SettingComponent -->
<g id="node26" class="node">
<title>SettingComponent</title>
<polygon fill="#ffffb3" stroke="black" points="891.5,-84.8 770.5,-84.8 770.5,-48.8 891.5,-48.8 891.5,-84.8"/>
<text text-anchor="middle" x="831" y="-62.6" font-family="Times,serif" font-size="14.00">SettingComponent</text>
</g>
<!-- SettingComponent&#45;&gt;AppModule -->
<g id="edge26" class="edge">
<title>SettingComponent&#45;&gt;AppModule</title>
<path fill="none" stroke="black" d="M831,-84.83C831,-105.57 831,-136.8 831,-136.8 831,-136.8 2267.26,-136.8 2267.26,-136.8"/>
<polygon fill="black" stroke="black" points="2267.26,-140.3 2277.26,-136.8 2267.26,-133.3 2267.26,-140.3"/>
</g>
<!-- TestComponent -->
<g id="node27" class="node">
<title>TestComponent</title>
<polygon fill="#ffffb3" stroke="black" points="752.94,-84.8 647.06,-84.8 647.06,-48.8 752.94,-48.8 752.94,-84.8"/>
<text text-anchor="middle" x="700" y="-62.6" font-family="Times,serif" font-size="14.00">TestComponent</text>
</g>
<!-- TestComponent&#45;&gt;AppModule -->
<g id="edge27" class="edge">
<title>TestComponent&#45;&gt;AppModule</title>
<path fill="none" stroke="black" d="M700,-84.97C700,-106.3 700,-138.8 700,-138.8 700,-138.8 2266.94,-138.8 2266.94,-138.8"/>
<polygon fill="black" stroke="black" points="2266.94,-142.3 2276.94,-138.8 2266.94,-135.3 2266.94,-142.3"/>
</g>
<!-- TransitionComponent -->
<g id="node28" class="node">
<title>TransitionComponent</title>
<polygon fill="#ffffb3" stroke="black" points="629.38,-84.8 490.62,-84.8 490.62,-48.8 629.38,-48.8 629.38,-84.8"/>
<text text-anchor="middle" x="560" y="-62.6" font-family="Times,serif" font-size="14.00">TransitionComponent</text>
</g>
<!-- TransitionComponent&#45;&gt;AppModule -->
<g id="edge28" class="edge">
<title>TransitionComponent&#45;&gt;AppModule</title>
<path fill="none" stroke="black" d="M560,-85.09C560,-107.01 560,-140.8 560,-140.8 560,-140.8 2267.25,-140.8 2267.25,-140.8"/>
<polygon fill="black" stroke="black" points="2267.25,-144.3 2277.25,-140.8 2267.25,-137.3 2267.25,-144.3"/>
</g>
<!-- WelcomeComponent -->
<g id="node29" class="node">
<title>WelcomeComponent</title>
<polygon fill="#ffffb3" stroke="black" points="472.47,-84.8 337.53,-84.8 337.53,-48.8 472.47,-48.8 472.47,-84.8"/>
<text text-anchor="middle" x="405" y="-62.6" font-family="Times,serif" font-size="14.00">WelcomeComponent</text>
</g>
<!-- WelcomeComponent&#45;&gt;AppModule -->
<g id="edge29" class="edge">
<title>WelcomeComponent&#45;&gt;AppModule</title>
<path fill="none" stroke="black" d="M405,-85.05C405,-107.82 405,-143.8 405,-143.8 405,-143.8 2267.24,-143.8 2267.24,-143.8"/>
<polygon fill="black" stroke="black" points="2267.24,-147.3 2277.24,-143.8 2267.24,-140.3 2267.24,-147.3"/>
</g>
<!-- AppComponent  -->
<g id="node32" class="node">
<title>AppComponent </title>
<polygon fill="#80b1d3" stroke="black" points="2373.44,-214.8 2264.56,-214.8 2264.56,-178.8 2373.44,-178.8 2373.44,-214.8"/>
<text text-anchor="middle" x="2319" y="-192.6" font-family="Times,serif" font-size="14.00">AppComponent </text>
</g>
<!-- AppModule&#45;&gt;AppComponent  -->
<g id="edge31" class="edge">
<title>AppModule&#45;&gt;AppComponent </title>
<path fill="none" stroke="black" stroke-dasharray="1,5" d="M2319,-149.91C2319,-149.91 2319,-168.79 2319,-168.79"/>
<polygon fill="black" stroke="black" points="2315.5,-168.79 2319,-178.79 2322.5,-168.79 2315.5,-168.79"/>
</g>
<!-- AppRoutingModule -->
<g id="node31" class="node">
<title>AppRoutingModule</title>
<polygon fill="#8dd3c7" stroke="black" points="152.28,-84.8 149.28,-88.8 128.28,-88.8 125.28,-84.8 23.72,-84.8 23.72,-48.8 152.28,-48.8 152.28,-84.8"/>
<text text-anchor="middle" x="88" y="-62.6" font-family="Times,serif" font-size="14.00">AppRoutingModule</text>
</g>
<!-- AppRoutingModule&#45;&gt;AppModule -->
<g id="edge30" class="edge">
<title>AppRoutingModule&#45;&gt;AppModule</title>
<path fill="none" stroke="black" d="M88,-85.18C88,-109.08 88,-147.8 88,-147.8 88,-147.8 2266.92,-147.8 2266.92,-147.8"/>
<polygon fill="black" stroke="black" points="2266.92,-151.3 2276.92,-147.8 2266.92,-144.3 2266.92,-151.3"/>
</g>
<!-- StorageService -->
<g id="node33" class="node">
<title>StorageService</title>
<ellipse fill="#fdb462" stroke="black" cx="245" cy="-66.8" rx="69.48" ry="18"/>
<text text-anchor="middle" x="245" y="-62.6" font-family="Times,serif" font-size="14.00">StorageService</text>
</g>
<!-- StorageService&#45;&gt;AppModule -->
<g id="edge32" class="edge">
<title>StorageService&#45;&gt;AppModule</title>
<path fill="none" stroke="black" d="M245,-85.12C245,-108.46 245,-145.8 245,-145.8 245,-145.8 2267.1,-145.8 2267.1,-145.8"/>
<polygon fill="black" stroke="black" points="2267.1,-149.3 2277.1,-145.8 2267.1,-142.3 2267.1,-149.3"/>
</g>
</g>
</svg>
